<svg xmlns="http://www.w3.org/2000/svg" fill="none" viewBox="0 0 32 32"><circle cx="16" cy="16" r="16" fill="#fff"/><path fill="#1E6391" d="M25.032 25.032H6.968a1.003 1.003 0 0 1-1.004-1.003v-7.54c0-.29.126-.566.344-.757l3.67-3.2v-4.56c0-.555.45-1.004 1.004-1.004h14.05c.555 0 1.004.449 1.004 1.003V24.03c0 .554-.45 1.003-1.004 1.003ZM12.99 23.025H16v-6.08l-4.014-3.5-4.015 3.5v6.08h3.011v-4.014h2.007v4.014Zm5.018 0h6.022V8.975H11.986v2.135c.235 0 .47.082.66.247l5.017 4.375a1 1 0 0 1 .344.757v6.536Zm2.007-8.029h2.008v2.008h-2.008v-2.008Zm0 4.015h2.008v2.007h-2.008v-2.007Zm0-8.029h2.008v2.007h-2.008v-2.007Zm-4.014 0h2.007v2.007H16v-2.007Z"/></svg>